<svg xmlns="http://www.w3.org/2000/svg" xmlns:xlink="http://www.w3.org/1999/xlink" width="700" zoomAndPan="magnify" viewBox="0 0 525 225" height="300" preserveAspectRatio="xMidYMid meet" version="1.0"><defs><g/><clipPath id="d66b9f36c3"><path d="M 7.996094 32.457031 L 142.429688 32.457031 L 142.429688 197.273438 L 7.996094 197.273438 Z M 7.996094 32.457031 " clip-rule="nonzero"/></clipPath></defs><g fill="#000000" fill-opacity="1"><g transform="translate(162.23294, 120.212764)"><g><path d="M 7.195312 0 L 20.726562 0 L 20.726562 -36.742188 L 47.191406 0 L 58.753906 0 L 58.753906 -59.953125 L 45.222656 -59.953125 L 45.222656 -23.46875 L 18.757812 -59.953125 L 7.195312 -59.953125 Z M 7.195312 0 "/></g></g></g><g fill="#000000" fill-opacity="1"><g transform="translate(228.177195, 120.212764)"><g><path d="M 28.605469 1.199219 C 43.507812 1.199219 53.785156 -8.480469 53.785156 -22.527344 C 53.785156 -36.484375 43.507812 -46.164062 28.605469 -46.164062 C 13.617188 -46.164062 3.339844 -36.484375 3.339844 -22.527344 C 3.339844 -8.480469 13.617188 1.199219 28.605469 1.199219 Z M 16.1875 -22.527344 C 16.1875 -29.890625 21.328125 -35.03125 28.605469 -35.03125 C 35.886719 -35.03125 40.941406 -29.890625 40.941406 -22.527344 C 40.941406 -15.160156 35.886719 -10.019531 28.605469 -10.019531 C 21.328125 -10.019531 16.1875 -15.160156 16.1875 -22.527344 Z M 16.1875 -22.527344 "/></g></g></g><g fill="#000000" fill-opacity="1"><g transform="translate(285.300336, 120.212764)"><g><path d="M 28.179688 0 L 36.402344 0 L 36.402344 -11.304688 L 31.003906 -11.304688 C 25.867188 -11.304688 23.46875 -13.789062 23.46875 -19.015625 L 23.46875 -34.34375 L 35.800781 -34.34375 L 35.800781 -44.964844 L 23.46875 -44.964844 L 23.46875 -56.613281 L 13.359375 -56.613281 L 12.589844 -50.789062 C 11.90625 -46.164062 10.621094 -44.964844 5.738281 -44.964844 L 1.714844 -44.964844 L 1.714844 -34.34375 L 10.449219 -34.34375 L 10.449219 -17.042969 C 10.449219 -6.082031 16.785156 0 28.179688 0 Z M 28.179688 0 "/></g></g></g><g fill="#000000" fill-opacity="1"><g transform="translate(325.295099, 120.212764)"><g><path d="M 27.75 1.199219 C 38.796875 1.199219 47.535156 -4.453125 51.472656 -13.960938 L 38.285156 -13.960938 C 36.144531 -10.964844 32.289062 -9.25 28.007812 -9.25 C 22.097656 -9.25 17.472656 -12.589844 16.273438 -18.757812 L 52.332031 -18.757812 C 53.101562 -35.203125 43.339844 -46.164062 27.921875 -46.164062 C 13.359375 -46.164062 3.339844 -36.484375 3.339844 -22.527344 C 3.339844 -8.480469 13.277344 1.199219 27.75 1.199219 Z M 16.359375 -26.980469 C 17.816406 -32.460938 22.269531 -35.800781 28.007812 -35.800781 C 34.003906 -35.800781 38.285156 -32.460938 39.742188 -26.980469 Z M 16.359375 -26.980469 "/></g></g></g><g fill="#000000" fill-opacity="1"><g transform="translate(380.876686, 120.212764)"><g><path d="M 26.464844 1.199219 C 39.910156 1.199219 48.648438 -6.339844 48.648438 -18.070312 C 48.648438 -28.007812 42.140625 -35.203125 32.203125 -36.742188 L 46.164062 -50.703125 L 46.164062 -59.953125 L 5.308594 -59.953125 L 5.308594 -48.21875 L 28.433594 -48.21875 L 15.757812 -35.371094 L 15.757812 -27.40625 L 26.292969 -27.40625 C 31.945312 -27.40625 35.628906 -24.152344 35.628906 -19.097656 C 35.628906 -14.046875 31.945312 -10.792969 26.292969 -10.792969 C 20.726562 -10.792969 17.128906 -13.875 16.871094 -18.757812 L 3.855469 -18.757812 C 4.367188 -6.421875 12.933594 1.199219 26.464844 1.199219 Z M 26.464844 1.199219 "/></g></g></g><g fill="#000000" fill-opacity="1"><g transform="translate(169.334015, 156.77969)"><g><path d="M 6.1875 0 L 10.320312 0 L 14.503906 -11.925781 L 18.691406 0 L 22.796875 0 L 28.746094 -18.425781 L 24.324219 -18.425781 L 22.5625 -12.820312 L 20.585938 -6.6875 L 18.453125 -12.820312 L 16.480469 -18.425781 L 12.503906 -18.425781 L 10.53125 -12.820312 L 8.425781 -6.765625 L 6.476562 -12.820312 L 4.710938 -18.425781 L 0.261719 -18.425781 Z M 6.1875 0 "/></g></g></g><g fill="#000000" fill-opacity="1"><g transform="translate(198.341221, 156.77969)"><g><path d="M 8.53125 0.367188 C 11.925781 0.367188 14.609375 -1.367188 15.820312 -4.289062 L 11.765625 -4.289062 C 11.109375 -3.371094 9.925781 -2.84375 8.609375 -2.84375 C 6.792969 -2.84375 5.371094 -3.871094 5 -5.765625 L 16.085938 -5.765625 C 16.320312 -10.820312 13.320312 -14.1875 8.582031 -14.1875 C 4.105469 -14.1875 1.027344 -11.214844 1.027344 -6.921875 C 1.027344 -2.605469 4.082031 0.367188 8.53125 0.367188 Z M 5.027344 -8.292969 C 5.476562 -9.976562 6.84375 -11.003906 8.609375 -11.003906 C 10.449219 -11.003906 11.765625 -9.976562 12.214844 -8.292969 Z M 5.027344 -8.292969 "/></g></g></g><g fill="#000000" fill-opacity="1"><g transform="translate(215.424413, 156.77969)"><g><path d="M 10.371094 0.367188 C 14.503906 0.367188 17.425781 -2.632812 17.425781 -6.921875 C 17.425781 -11.160156 14.503906 -14.1875 10.371094 -14.1875 C 8.660156 -14.1875 7.160156 -13.664062 6.003906 -12.742188 L 6.003906 -19.480469 L 2 -19.480469 L 2 0 L 4.976562 0 L 5.421875 -1.578125 C 6.660156 -0.34375 8.371094 0.367188 10.371094 0.367188 Z M 5.84375 -6.921875 C 5.84375 -9.160156 7.421875 -10.765625 9.660156 -10.765625 C 11.925781 -10.765625 13.476562 -9.160156 13.476562 -6.921875 C 13.476562 -4.660156 11.925781 -3.078125 9.660156 -3.078125 C 7.421875 -3.078125 5.84375 -4.660156 5.84375 -6.921875 Z M 5.84375 -6.921875 "/></g></g></g><g fill="#000000" fill-opacity="1"><g transform="translate(233.876364, 156.77969)"><g><path d="M 8.132812 0.367188 C 12.265625 0.367188 14.953125 -1.949219 14.953125 -5.554688 C 14.953125 -8.609375 12.953125 -10.820312 9.898438 -11.292969 L 14.1875 -15.585938 L 14.1875 -18.425781 L 1.632812 -18.425781 L 1.632812 -14.820312 L 8.738281 -14.820312 L 4.84375 -10.871094 L 4.84375 -8.425781 L 8.082031 -8.425781 C 9.820312 -8.425781 10.953125 -7.421875 10.953125 -5.871094 C 10.953125 -4.316406 9.820312 -3.316406 8.082031 -3.316406 C 6.371094 -3.316406 5.265625 -4.265625 5.1875 -5.765625 L 1.183594 -5.765625 C 1.34375 -1.972656 3.976562 0.367188 8.132812 0.367188 Z M 8.132812 0.367188 "/></g></g></g><g fill="#000000" fill-opacity="1"><g transform="translate(250.248856, 156.77969)"><g/></g></g><g fill="#000000" fill-opacity="1"><g transform="translate(256.434603, 156.77969)"><g><path d="M 2.210938 0 L 6.371094 0 L 6.371094 -11.292969 L 14.503906 0 L 18.058594 0 L 18.058594 -18.425781 L 13.898438 -18.425781 L 13.898438 -7.214844 L 5.765625 -18.425781 L 2.210938 -18.425781 Z M 2.210938 0 "/></g></g></g><g fill="#000000" fill-opacity="1"><g transform="translate(276.702792, 156.77969)"><g><path d="M 8.792969 0.367188 C 13.375 0.367188 16.53125 -2.605469 16.53125 -6.921875 C 16.53125 -11.214844 13.375 -14.1875 8.792969 -14.1875 C 4.1875 -14.1875 1.027344 -11.214844 1.027344 -6.921875 C 1.027344 -2.605469 4.1875 0.367188 8.792969 0.367188 Z M 4.976562 -6.921875 C 4.976562 -9.1875 6.554688 -10.765625 8.792969 -10.765625 C 11.03125 -10.765625 12.582031 -9.1875 12.582031 -6.921875 C 12.582031 -4.660156 11.03125 -3.078125 8.792969 -3.078125 C 6.554688 -3.078125 4.976562 -4.660156 4.976562 -6.921875 Z M 4.976562 -6.921875 "/></g></g></g><g fill="#000000" fill-opacity="1"><g transform="translate(294.259784, 156.77969)"><g><path d="M 8.660156 0 L 11.1875 0 L 11.1875 -3.476562 L 9.53125 -3.476562 C 7.949219 -3.476562 7.214844 -4.238281 7.214844 -5.84375 L 7.214844 -10.554688 L 11.003906 -10.554688 L 11.003906 -13.820312 L 7.214844 -13.820312 L 7.214844 -17.402344 L 4.105469 -17.402344 L 3.871094 -15.609375 C 3.660156 -14.1875 3.265625 -13.820312 1.765625 -13.820312 L 0.527344 -13.820312 L 0.527344 -10.554688 L 3.210938 -10.554688 L 3.210938 -5.238281 C 3.210938 -1.867188 5.160156 0 8.660156 0 Z M 8.660156 0 "/></g></g></g><g fill="#000000" fill-opacity="1"><g transform="translate(306.552307, 156.77969)"><g><path d="M 8.53125 0.367188 C 11.925781 0.367188 14.609375 -1.367188 15.820312 -4.289062 L 11.765625 -4.289062 C 11.109375 -3.371094 9.925781 -2.84375 8.609375 -2.84375 C 6.792969 -2.84375 5.371094 -3.871094 5 -5.765625 L 16.085938 -5.765625 C 16.320312 -10.820312 13.320312 -14.1875 8.582031 -14.1875 C 4.105469 -14.1875 1.027344 -11.214844 1.027344 -6.921875 C 1.027344 -2.605469 4.082031 0.367188 8.53125 0.367188 Z M 5.027344 -8.292969 C 5.476562 -9.976562 6.84375 -11.003906 8.609375 -11.003906 C 10.449219 -11.003906 11.765625 -9.976562 12.214844 -8.292969 Z M 5.027344 -8.292969 "/></g></g></g><g fill="#000000" fill-opacity="1"><g transform="translate(323.635499, 156.77969)"><g><path d="M 7.320312 0.367188 C 11.054688 0.367188 13.320312 -1.261719 13.320312 -3.894531 C 13.320312 -6.160156 11.636719 -7.609375 8.214844 -8.292969 C 5.84375 -8.765625 5.105469 -9.160156 5.105469 -10.003906 C 5.105469 -10.820312 5.84375 -11.292969 7.027344 -11.292969 C 8.371094 -11.292969 9.1875 -10.6875 9.265625 -9.636719 L 13.082031 -9.636719 C 12.898438 -12.558594 10.742188 -14.1875 7.054688 -14.1875 C 3.34375 -14.1875 1.238281 -12.6875 1.238281 -10.003906 C 1.238281 -7.714844 2.816406 -6.34375 6.34375 -5.710938 C 8.476562 -5.34375 9.371094 -4.792969 9.371094 -3.921875 C 9.371094 -3.105469 8.632812 -2.605469 7.371094 -2.605469 C 5.898438 -2.605469 5 -3.316406 4.976562 -4.449219 L 1.054688 -4.449219 C 1.054688 -1.554688 3.527344 0.367188 7.320312 0.367188 Z M 7.320312 0.367188 "/></g></g></g><g fill="#000000" fill-opacity="1"><g transform="translate(17.301586, 164.147728)"><g><path d="M 12.671875 0 L 36.511719 0 L 36.511719 -64.722656 L 83.128906 0 L 103.5 0 L 103.5 -105.609375 L 79.660156 -105.609375 L 79.660156 -41.339844 L 33.039062 -105.609375 L 12.671875 -105.609375 Z M 12.671875 0 "/></g></g></g><g clip-path="url(#d66b9f36c3)"><path stroke-linecap="butt" transform="matrix(0.757586, 0, 0, 0.758542, 7.996112, 32.455241)" fill="none" stroke-linejoin="miter" d="M -0.0000241779 0.00236069 L 177.449913 0.00236069 L 177.449913 217.282785 L -0.0000241779 217.282785 L -0.0000241779 0.00236069 " stroke="#000000" stroke-width="7.899669" stroke-opacity="1" stroke-miterlimit="4"/></g></svg>